<?xml version="1.0" encoding="utf-8"?>
<!-- Generator: Adobe Illustrator 24.3.0, SVG Export Plug-In . SVG Version: 6.00 Build 0)  -->
<svg version="1.1" id="layer" xmlns="http://www.w3.org/2000/svg" xmlns:xlink="http://www.w3.org/1999/xlink" x="0px" y="0px"
	 viewBox="0 0 600 119.7" style="enable-background:new 0 0 600 119.7;" xml:space="preserve">
<style type="text/css">
	.st0{fill:url(#Shape_2_);}
	.st1{fill:#555B68;}
</style>
<g id="Symbols">
	<g id="_x30_0_x5F_Assets_x2F_Logo_x2F_Horizontal_x2F_Full-Color">
		<g id="Harmony-logo-FC-horizontal">
			
				<linearGradient id="Shape_2_" gradientUnits="userSpaceOnUse" x1="-622.0179" y1="-138.3232" x2="-621.4357" y2="-138.907" gradientTransform="matrix(180 0 0 179.5068 111970.8047 24942.375)">
				<stop  offset="0" style="stop-color:#00AEE9"/>
				<stop  offset="1" style="stop-color:#69FABD"/>
			</linearGradient>
			<path id="Shape" class="st0" d="M94.1,0C79.8,0,68.3,11.5,68.2,25.8v28.6c-2.7,0.2-5.4,0.3-8.2,0.3s-5.5,0.1-8.2,0.3V25.8
				C51.6,11.7,40.1,0.3,25.9,0.3S0.2,11.6,0,25.8v68.4c0.2,14.1,11.7,25.5,25.9,25.5s25.7-11.3,25.9-25.5V65.6
				c2.7-0.2,5.4-0.3,8.2-0.3s5.5-0.1,8.2-0.3v29.2c0.2,14.1,11.7,25.5,25.9,25.5s25.7-11.3,25.9-25.5V25.8
				C119.9,11.6,108.3,0,94.1,0z M25.9,10.6c8.4,0,15.3,6.8,15.3,15.2v30.3c-7.6,1.1-15,3.2-22,6.2c-3,1.3-5.9,3-8.5,5.1V25.8
				C10.6,17.4,17.5,10.6,25.9,10.6z M41.1,94.2c0,8.4-6.8,15.3-15.3,15.3s-15.3-6.8-15.3-15.3v-6.9c0-6.1,4.8-11.8,12.8-15.4
				c5.7-2.4,11.6-4.2,17.7-5.2L41.1,94.2L41.1,94.2z M94.1,109.4c-8.4,0-15.3-6.8-15.3-15.2V63.9c7.6-1.1,15-3.2,22-6.2
				c3-1.3,5.9-3,8.5-5.1v41.6C109.3,102.6,102.5,109.4,94.1,109.4z M96.5,48c-5.7,2.4-11.6,4.2-17.7,5.2V25.8
				c0-8.4,6.8-15.3,15.3-15.3s15.3,6.8,15.3,15.3v6.9C109.3,38.7,104.5,44.5,96.5,48z"/>
			<path id="Shape_1_" class="st1" d="M458.7,43.6c-11.4,0-21.8,6.9-26.1,17.5c-4.4,10.6-2,22.7,6.1,30.8
				c8.1,8.1,20.3,10.5,30.8,6.1S487,83.3,487,71.9C487,56.3,474.3,43.6,458.7,43.6z M458.7,91C451,91,444,86.4,441,79.2
				c-3-7.1-1.3-15.4,4.1-20.8c5.5-5.5,13.7-7.1,20.8-4.2c7.1,3,11.8,9.9,11.8,17.7C477.8,82.5,469.2,91,458.7,91z M286.6,43.8
				c-1.2,0-2.4,0.5-3.2,1.3c-0.9,0.9-1.3,2-1.3,3.2V51c-11.3-10.4-28.8-9.9-39.4,1.1c-10.7,11-10.7,28.5,0,39.5
				c10.7,11,28.2,11.5,39.4,1.1v2.7c0,2.5,2.1,4.6,4.6,4.6s4.6-2.1,4.6-4.6v-47c0-1.2-0.5-2.4-1.3-3.2
				C289,44.3,287.9,43.8,286.6,43.8z M262.9,91c-7.7,0-14.7-4.7-17.7-11.8c-3-7.1-1.3-15.4,4.1-20.8c5.5-5.5,13.7-7.1,20.8-4.1
				c7.1,3,11.8,9.9,11.8,17.7c0,5.1-2,9.9-5.6,13.5S268,91,262.9,91z M335.2,48.2c0,2.5-2.1,4.6-4.6,4.6c-0.1,0-0.2,0-0.3,0
				c-0.1,0-0.2,0-0.3,0c-5.1,0-9.9,2-13.5,5.6s-5.6,8.4-5.6,13.5c-0.2,0.9-0.1,15.5-0.1,24.1c-0.2,1.2-0.8,2.3-1.8,3s-2.2,1-3.4,0.9
				c-2.3-0.4-3.9-2.4-3.9-4.8V48.3c0-1.3,0.5-2.5,1.4-3.3c0.9-0.9,2.1-1.3,3.4-1.3c2.5,0.2,4.4,2.3,4.3,4.8v2.4
				c5.2-4.8,12-7.5,19.1-7.5h0.6c1.2,0,2.4,0.5,3.2,1.3C334.8,45.8,335.2,47,335.2,48.2z M542.2,67.3v28.1c0,2.5-2.1,4.6-4.6,4.6
				s-4.6-2.1-4.6-4.6v-4.6V67.3c0-4-1.7-7.8-4.6-10.5c-2.9-2.7-6.8-4.1-10.8-3.8c-7.6,0.5-13.3,7.2-13.3,14.8v5.6v17.4v4.6
				c0,2.5-2.1,4.6-4.6,4.6s-4.6-2.1-4.6-4.6v-47c0-2.5,2.1-4.6,4.6-4.6s4.6,2.1,4.6,4.6v0.4c3.8-3,8.4-4.8,13.2-5
				c6.4-0.3,12.7,2,17.4,6.4S542.2,60.9,542.2,67.3z M225.2,24.6v70.9c-0.1,2.4-2.1,4.4-4.5,4.4s-4.4-1.9-4.5-4.4V63.4H169v32.2
				c-0.1,2.4-2.1,4.4-4.5,4.4s-4.4-1.9-4.5-4.4v-71c0.1-2.4,2.1-4.4,4.5-4.4s4.4,1.9,4.5,4.4v30.9h47.2V24.6
				c0.1-2.4,2.1-4.4,4.5-4.4C223.1,20.2,225.1,22.1,225.2,24.6L225.2,24.6z M422.1,69.5v25.9c0,2.5-2.1,4.6-4.6,4.6
				s-4.6-2.1-4.6-4.6V71.8v-6.2c0.1-4.6-2.3-9-6.3-11.3c-4-2.4-9-2.4-13,0s-6.4,6.7-6.3,11.3v29.8c0,2.5-2.1,4.6-4.6,4.6
				s-4.6-2.1-4.6-4.6V71.8v-6.2c0.1-4.6-2.3-9-6.3-11.3c-4-2.4-9-2.4-13,0s-6.4,6.7-6.3,11.3v29.8c0,2.5-2.1,4.6-4.6,4.6
				s-4.6-2.1-4.6-4.6V48.5c0-2.4,1.8-4.5,4.2-4.6c2.4-0.2,4.6,1.6,4.9,4c9.6-7,23-5,30.2,4.4c5.7-7.5,15.6-10.4,24.5-7.4
				S422,56.3,422,65.7L422.1,69.5L422.1,69.5z M599.3,50.5l-30.9,66.9c-1.2,2.1-3.8,2.9-6,1.9s-3.2-3.5-2.4-5.8l8.3-18l-20.8-45
				c-0.9-1.5-0.9-3.4,0.1-4.9s2.7-2.3,4.5-2.1c1.8,0.2,3.3,1.4,3.8,3.1l17.5,37.8l17.5-37.8c0.6-1.7,2.1-2.9,3.8-3.1
				c1.8-0.2,3.5,0.6,4.5,2.1C600.2,47,600.2,48.9,599.3,50.5L599.3,50.5z"/>
		</g>
	</g>
</g>
</svg>
