<?xml version="1.0" encoding="utf-8"?>
<!-- Generator: Adobe Illustrator 23.1.1, SVG Export Plug-In . SVG Version: 6.00 Build 0)  -->
<svg version="1.1" id="Layer_1" xmlns="http://www.w3.org/2000/svg" xmlns:xlink="http://www.w3.org/1999/xlink" x="0px" y="0px"
	 viewBox="0 0 164 164" style="enable-background:new 0 0 164 164;" xml:space="preserve">
<style type="text/css">
	.st0{clip-path:url(#SVGID_2_);}
	.st1{fill:#0041C4;}
</style>
<g>
	<defs>
		<rect id="SVGID_1_" x="14" y="68.5" width="136" height="27"/>
	</defs>
	<clipPath id="SVGID_2_">
		<use xlink:href="#SVGID_1_"  style="overflow:visible;"/>
	</clipPath>
	<g class="st0">
		<path class="st1" d="M26.5,94.7c-0.7,0.4-2.2,0.8-4.1,0.8c-5.5,0-8.4-3.8-8.4-8.7c0-6,3.9-9.3,8.7-9.3c1.9,0,3.3,0.4,3.9,0.8
			l-0.7,3.1c-0.7-0.3-1.8-0.6-3-0.6c-2.9,0-5.1,1.9-5.1,5.8c0,3.5,1.9,5.7,5.1,5.7c1.1,0,2.3-0.3,3-0.6L26.5,94.7z"/>
		<path class="st1" d="M48.7,92.2c1.6,0.1,2.7,0,3.9,0c3.6,0,5.7-2.2,5.7-5.7c0-3.9-2.5-5.8-5.6-5.8c-1.4,0-2.6-0.1-4,0.1l-0.2-3.1
			c2.3-0.2,2.3-0.2,4.3-0.2c5.3,0,9.6,3.3,9.6,9.3c0,5-3.1,8.7-9.2,8.7c-2.2,0-2.9,0-4.5-0.2V92.2z"/>
		<path class="st1" d="M44.4,86.2c0,5.7-3.2,9.2-7.9,9.2c-4.8,0-7.5-3.9-7.5-8.9c0-5.2,3-9.2,7.8-9.2C41.8,77.4,44.4,81.4,44.4,86.2
			z M32.9,86.5c0,3.4,1.5,5.8,3.9,5.8c2.4,0,3.8-2.5,3.8-6c0-3.1-1.4-5.8-3.9-5.8C34.3,80.5,32.9,83.1,32.9,86.5z"/>
		<path class="st1" d="M76.1,88.1h-5.9v4.1h6.6v3.3H66.6V78h9.9v3.3h-6.2v3.6h5.9V88.1z"/>
		<path class="st1" d="M80.9,78h3.6v14.2h6.3v3.3h-10V78L80.9,78z"/>
		<path class="st1" d="M98.3,78v17.5h-3.6V78H98.3z"/>
		<path class="st1" d="M116.5,94.5c-1.1,0.4-3.2,1-5.3,1c-2.9,0-5-0.8-6.5-2.4c-1.5-1.5-2.3-3.8-2.3-6.3c0-5.8,3.9-9.1,9.1-9.1
			c2.1,0,3.7,0.4,4.4,0.9l-0.8,3.2c-0.9-0.4-2-0.8-3.7-0.8c-3,0-5.3,1.9-5.3,5.6c0,3.6,2.1,5.7,5,5.7c0.8,0,1.5-0.1,1.8-0.3v-3.7
			h-2.5v-3.1h6L116.5,94.5L116.5,94.5z"/>
		<path class="st1" d="M124.6,78v6.7h6V78h3.6v17.5h-3.6v-7.3h-6v7.3h-3.6V78H124.6z"/>
		<path class="st1" d="M142,81.3h-4.3V78H150v3.3h-4.4v14.2H142V81.3z"/>
		<path class="st1" d="M52,82.8h-3.4v3.3H52V82.8z"/>
		<path class="st1" d="M52,87.3h-3.4v3.3H52V87.3z"/>
		<path class="st1" d="M97.9,76.2l-2.5-0.7c0-5.4,4.5-6.9,4.7-7l0.9,2.3l-0.5-1.1l0.5,1.1c-0.1,0-1.7,0.6-2.5,2.4
			c1.1-0.3,2.7-0.4,4.8-0.2l-0.3,2.4C99.1,75,97.9,76.1,97.9,76.2z"/>
	</g>
</g>
</svg>
