<svg width="100" height="100" viewBox="0 0 100 100" fill="none" xmlns="http://www.w3.org/2000/svg">
<rect x="0.5" y="0.5" width="99" height="99" rx="49.5" fill="white" stroke="#E9EBFA"/>
<g clip-path="url(#clip0_103_1149)">
<path d="M72.5326 33.5352C71.8073 33.5352 71.1347 33.7605 70.5775 34.1435L65.9296 31.4881C66.2703 30.7974 66.4661 30.0235 66.4661 29.2019C66.4661 26.3341 64.1339 24.002 61.2662 24.002C58.3993 24.002 56.0663 26.3341 56.0663 29.2019C56.0663 31.0557 57.0447 32.6814 58.5093 33.6027L53.8051 42.2267C52.6542 41.6608 51.3663 41.3349 49.9996 41.3349C48.6286 41.3349 47.3364 41.6634 46.1829 42.2328L40.7056 32.8435C41.6286 31.9049 42.1997 30.6188 42.1997 29.2019C42.1997 26.3341 39.8675 24.002 36.9998 24.002C34.1329 24.002 31.7998 26.3341 31.7998 29.2019C31.7998 32.0696 34.1329 34.4018 36.9998 34.4018C37.8231 34.4018 38.5996 34.2041 39.2929 33.8619L44.7112 43.1506C42.6606 44.7375 41.3329 47.2144 41.3329 50.0006C41.3329 51.0197 41.5193 51.993 41.8434 52.9022L34.2792 54.9648C33.7723 52.6257 31.6888 50.8664 29.1998 50.8664C26.3329 50.8664 23.9999 53.1985 23.9999 56.0663C23.9999 58.9341 26.3329 61.2662 29.1998 61.2662C31.8378 61.2662 34.0183 59.2902 34.3503 56.7414L42.6017 54.4907C44.1244 56.9884 46.8657 58.6653 49.9995 58.6653C50.9858 58.6653 51.9296 58.492 52.8136 58.187L54.1794 65.6999C52.1566 66.1039 50.5551 67.6845 50.1191 69.6961L42.1788 67.5303C42.1823 67.4626 42.1987 67.3994 42.1987 67.3309C42.1987 65.419 40.644 63.8643 38.7322 63.8643C36.8204 63.8643 35.2656 65.4191 35.2656 67.3309C35.2656 69.2427 36.8204 70.7975 38.7322 70.7975C39.9611 70.7975 41.0366 70.1501 41.6519 69.1829L50.0481 71.4726C50.3809 74.0214 52.5614 75.9974 55.1986 75.9974C58.0664 75.9974 60.3985 73.6653 60.3985 70.7975C60.3985 68.1793 58.452 66.0136 55.9327 65.6557L54.4368 57.4285C56.5809 56.1433 58.1218 53.962 58.5413 51.4018L64.932 54.9517C64.8115 55.3027 64.7326 55.6728 64.7326 56.0645C64.7326 57.9764 66.2874 59.531 68.1992 59.531C70.1111 59.531 71.6658 57.9762 71.6658 56.0645C71.6658 54.1526 70.111 52.5979 68.1992 52.5979C67.3083 52.5979 66.5023 52.9454 65.8879 53.5001L58.6401 49.4736C58.4849 46.8979 57.204 44.6264 55.2793 43.141L60.1195 34.2665C60.4896 34.3506 60.8726 34.3982 61.267 34.3982C62.6866 34.3982 63.9744 33.8253 64.9138 32.8989L69.4316 35.4807C69.2055 35.9408 69.0667 36.4513 69.0667 36.9982C69.0667 38.9101 70.6215 40.4647 72.5333 40.4647C74.4452 40.4647 75.9999 38.91 75.9999 36.9982C75.9999 35.0864 74.4436 33.5352 72.5326 33.5352ZM49.9996 46.5349C48.0877 46.5349 46.5331 48.0897 46.5331 50.0015C46.5331 50.4808 46.1448 50.8681 45.6664 50.8681C45.1881 50.8681 44.7998 50.4808 44.7998 50.0015C44.7998 47.1337 47.1329 44.8016 49.9997 44.8016C50.4781 44.8016 50.8663 45.1889 50.8663 45.6682C50.8662 46.1476 50.478 46.5349 49.9996 46.5349Z" fill="#27319B"/>
</g>
<defs>
<clipPath id="clip0_103_1149">
<rect width="52" height="52" fill="white" transform="translate(24 24)"/>
</clipPath>
</defs>
</svg>
