<svg width="100" height="100" viewBox="0 0 100 100" fill="none" xmlns="http://www.w3.org/2000/svg">
<rect x="0.5" y="0.5" width="99" height="99" rx="49.5" fill="white" stroke="#E9EBFA"/>
<g clip-path="url(#clip0_103_1157)">
<path d="M74.9537 75.0486H25.0463C24.4684 75.0486 24 74.5802 24 74.0023V72.7128C24 72.1349 24.4684 71.6665 25.0463 71.6665H74.9537C75.5316 71.6665 76 72.1349 76 72.7128V74.0023C76 74.5802 75.5316 75.0486 74.9537 75.0486Z" fill="#27319B"/>
<path d="M32.0435 57.5039H27.3719C26.794 57.5039 26.3256 57.9723 26.3256 58.5502V71.6665H33.0898V58.5502C33.0898 57.9723 32.6214 57.5039 32.0435 57.5039Z" fill="#27319B"/>
<path d="M45.5719 43.7642H40.9002C40.3223 43.7642 39.8539 44.2326 39.8539 44.8105V71.6666H46.6181V44.8105C46.6181 44.2326 46.1497 43.7642 45.5719 43.7642Z" fill="#27319B"/>
<path d="M59.1003 51.1624H54.4286C53.8507 51.1624 53.3823 51.6308 53.3823 52.2087V71.6664H60.1466V52.2087C60.1465 51.6308 59.6781 51.1624 59.1003 51.1624Z" fill="#27319B"/>
<path d="M72.6286 38.4797H67.9569C67.3791 38.4797 66.9106 38.9481 66.9106 39.526V71.6667H73.6749V39.526C73.6749 38.9481 73.2064 38.4797 72.6286 38.4797Z" fill="#27319B"/>
<path d="M56.7633 41.8011C56.6361 41.8011 56.5071 41.7701 56.3876 41.7047L42.8591 34.3064C42.4789 34.0985 42.3392 33.6217 42.5472 33.2414C42.7551 32.8612 43.2318 32.7213 43.6122 32.9295L57.1406 40.3278C57.5208 40.5357 57.6605 41.0126 57.4525 41.3928C57.3099 41.6535 57.0409 41.8011 56.7633 41.8011Z" fill="#27319B"/>
<path d="M56.7644 41.8009C56.5551 41.8009 56.3462 41.7176 56.1917 41.5529C55.8952 41.2366 55.9113 40.7401 56.2275 40.4436L69.7559 27.7608C70.0722 27.4644 70.5687 27.4805 70.8652 27.7966C71.1615 28.1128 71.1456 28.6094 70.8294 28.9058L57.3009 41.5887C57.1494 41.7305 56.9567 41.8009 56.7644 41.8009Z" fill="#27319B"/>
<path d="M29.7074 48.1425C29.5087 48.1425 29.3098 48.0674 29.1568 47.917C28.8481 47.6129 28.8442 47.1161 29.1482 46.8072L42.6767 33.0675C42.9807 32.7585 43.4776 32.7548 43.7865 33.0587C44.0953 33.3628 44.0991 33.8596 43.7951 34.1685L30.2666 47.9083C30.1131 48.0644 29.9102 48.1425 29.7074 48.1425Z" fill="#27319B"/>
<path d="M29.7077 50.7399C31.5756 50.7399 33.0898 49.2256 33.0898 47.3577C33.0898 45.4898 31.5756 43.9756 29.7077 43.9756C27.8398 43.9756 26.3256 45.4898 26.3256 47.3577C26.3256 49.2256 27.8398 50.7399 29.7077 50.7399Z" fill="#27319B"/>
<path d="M43.236 36.9999C45.1039 36.9999 46.6181 35.4856 46.6181 33.6177C46.6181 31.7498 45.1039 30.2356 43.236 30.2356C41.3681 30.2356 39.8539 31.7498 39.8539 33.6177C39.8539 35.4856 41.3681 36.9999 43.236 36.9999Z" fill="#27319B"/>
<path d="M56.7644 44.3985C58.6323 44.3985 60.1466 42.8843 60.1466 41.0164C60.1466 39.1485 58.6323 37.6343 56.7644 37.6343C54.8965 37.6343 53.3823 39.1485 53.3823 41.0164C53.3823 42.8843 54.8965 44.3985 56.7644 44.3985Z" fill="#27319B"/>
<path d="M70.2927 31.7154C72.1606 31.7154 73.6749 30.2012 73.6749 28.3333C73.6749 26.4654 72.1606 24.9512 70.2927 24.9512C68.4248 24.9512 66.9106 26.4654 66.9106 28.3333C66.9106 30.2012 68.4248 31.7154 70.2927 31.7154Z" fill="#27319B"/>
</g>
<defs>
<clipPath id="clip0_103_1157">
<rect width="52" height="52" fill="white" transform="translate(24 24)"/>
</clipPath>
</defs>
</svg>
