<svg width="100" height="100" viewBox="0 0 100 100" fill="none" xmlns="http://www.w3.org/2000/svg">
<rect x="0.5" y="0.5" width="99" height="99" rx="49.5" fill="white" stroke="#E9EBFA"/>
<path d="M59.1207 25.6788C49.7693 22.1111 38.8132 24.3505 31.8577 31.2503C31.517 31.5885 31.5143 32.1387 31.8525 32.4795C32.022 32.6516 32.2445 32.7368 32.4689 32.7368C32.6906 32.7368 32.9114 32.6525 33.0818 32.4847C39.56 26.0552 49.7764 23.9749 58.501 27.3035C58.9504 27.4757 59.452 27.2496 59.6233 26.801C59.7944 26.3525 59.5693 25.85 59.1207 25.6788Z" fill="#27319B"/>
<path d="M30.3225 34.267C29.933 33.9854 29.3897 34.0723 29.109 34.4635C26.4236 38.1834 24.7119 42.59 24.1625 47.2044C24.1042 47.6816 24.4441 48.1146 24.9214 48.171C24.9561 48.1754 24.991 48.1771 25.0257 48.1771C25.4604 48.1771 25.8351 47.8528 25.8881 47.4103C26.4044 43.088 28.0058 38.9622 30.519 35.4805C30.7997 35.0921 30.712 34.5487 30.3225 34.267Z" fill="#27319B"/>
<path d="M28.3714 61.5568C27.1378 59.1835 26.3215 56.6259 25.9451 53.9579C25.8782 53.4824 25.4383 53.1486 24.9628 53.2182C24.4873 53.2851 24.1561 53.7249 24.223 54.2006C24.6273 57.065 25.5035 59.8094 26.8285 62.3583C26.9833 62.6565 27.2866 62.8269 27.6004 62.8269C27.736 62.8278 27.8734 62.7956 28.0012 62.7295C28.4269 62.5079 28.593 61.9836 28.3714 61.5568Z" fill="#27319B"/>
<path d="M42.6474 73.2667C40.6436 72.6748 38.752 71.8132 36.9959 70.7292C37.3836 69.9997 37.6061 69.1696 37.6061 68.2872C37.6061 65.4106 35.2659 63.0713 32.3902 63.0713C29.5136 63.0713 27.1743 65.4106 27.1743 68.2872C27.1743 71.1638 29.5136 73.5032 32.3902 73.5032C33.7551 73.5032 34.9964 72.972 35.9266 72.1097C37.8574 73.3215 39.9439 74.2795 42.1553 74.9333C42.2379 74.9576 42.3205 74.9689 42.4022 74.9689C42.7778 74.9689 43.1238 74.7247 43.235 74.3456C43.3715 73.8866 43.1082 73.4032 42.6474 73.2667Z" fill="#27319B"/>
<path d="M59.9459 72.9383C59.7652 72.4923 59.2592 72.2793 58.8132 72.4584C55.6202 73.7502 52.1064 74.3692 48.6516 74.2458C48.1744 74.2162 47.7693 74.6031 47.7519 75.0829C47.7345 75.5637 48.1101 75.9662 48.59 75.9827C48.8986 75.9939 49.2081 76 49.5175 76C52.9131 76 56.333 75.3385 59.4662 74.0701C59.9112 73.8902 60.1259 73.3834 59.9459 72.9383Z" fill="#27319B"/>
<path d="M71.9041 61.9263C71.4904 61.6838 70.9574 61.8194 70.714 62.234C68.9259 65.2654 66.4396 67.9247 63.5256 69.9224C63.1292 70.1936 63.0292 70.7361 63.3004 71.1317C63.4691 71.3768 63.7412 71.5098 64.0185 71.5098C64.188 71.5098 64.3592 71.4602 64.5088 71.3576C67.6315 69.2164 70.2951 66.3677 72.212 63.1172C72.4553 62.7036 72.3179 62.1706 71.9041 61.9263Z" fill="#27319B"/>
<path d="M75.659 46.8122C75.6007 46.3358 75.1679 45.9864 74.6905 46.055C74.2141 46.1124 73.8751 46.5462 73.9325 47.0226C74.3342 50.3112 74.0333 53.7303 73.0631 56.9086C72.9232 57.3676 73.1813 57.8535 73.6412 57.9935C73.7255 58.0196 73.8107 58.0318 73.895 58.0318C74.2679 58.0318 74.6122 57.791 74.727 57.4164C75.7668 54.0068 76.0893 50.3391 75.659 46.8122Z" fill="#27319B"/>
<path d="M74.3306 41.2241C73.5526 39.0577 72.4773 37.0157 71.1567 35.1258C71.9182 34.2191 72.3799 33.0507 72.3799 31.7762C72.3799 28.8996 70.0396 26.5603 67.1639 26.5603C64.2873 26.5603 61.948 28.8996 61.948 31.7762C61.948 34.6528 64.2873 36.9922 67.1639 36.9922C68.1367 36.9922 69.0443 36.7201 69.8249 36.2542C71.0142 37.9815 71.9869 39.841 72.6946 41.8117C72.8216 42.1664 73.1562 42.3873 73.5127 42.3873C73.6092 42.3873 73.7083 42.3707 73.8057 42.336C74.2576 42.1734 74.4923 41.6753 74.3306 41.2241Z" fill="#27319B"/>
<path d="M61.4783 35.697C61.1037 35.3971 60.556 35.4579 60.256 35.8309C59.9561 36.2064 60.0162 36.7532 60.3908 37.0531C66.8412 42.2256 68.3687 51.9178 63.8672 59.1167C63.6125 59.5245 63.7359 60.0599 64.1437 60.3147C64.2871 60.405 64.4462 60.4468 64.6035 60.4468C64.893 60.4468 65.1764 60.3025 65.3416 60.0382C70.3029 52.1039 68.6051 41.4111 61.4783 35.697Z" fill="#27319B"/>
<path d="M61.5668 63.2148C61.266 62.8392 60.7192 62.7766 60.3436 63.0775C58.4867 64.5588 56.2221 65.6263 53.7932 66.1636C53.3246 66.2671 53.029 66.7312 53.1325 67.1998C53.2221 67.6057 53.5819 67.8814 53.981 67.8814C54.0427 67.8814 54.1062 67.8745 54.1696 67.8614C56.8558 67.2667 59.3664 66.0827 61.4293 64.4362C61.805 64.1372 61.8658 63.5894 61.5668 63.2148Z" fill="#27319B"/>
<path d="M34.6264 54.9154C33.9379 52.6395 33.7257 50.1914 34.0144 47.8373C34.0717 47.3609 33.7327 46.9271 33.2563 46.8688C32.7782 46.7975 32.3461 47.1487 32.2878 47.6251C31.9696 50.2175 32.2026 52.9133 32.9616 55.4196C33.0754 55.7952 33.4197 56.0368 33.7936 56.0368C33.877 56.0368 33.9623 56.0246 34.0466 55.9994C34.5055 55.8603 34.7654 55.3752 34.6264 54.9154Z" fill="#27319B"/>
<path d="M41.9623 34.7041C41.7127 34.2938 41.1781 34.1642 40.7678 34.413C37.8365 36.196 35.4987 38.7518 34.0079 41.8075C33.7976 42.2387 33.9757 42.7594 34.4078 42.9697C34.5304 43.0298 34.6608 43.0584 34.7885 43.0584C35.1094 43.0575 35.4188 42.8784 35.57 42.5698C36.9149 39.8149 39.0247 37.5077 41.671 35.8986C42.0814 35.6491 42.2118 35.1144 41.9623 34.7041Z" fill="#27319B"/>
<path d="M58.1764 40.8287C56.8767 39.7055 55.3355 38.8474 53.6854 38.3606C53.5037 38.3067 53.3168 38.2676 53.1325 38.2224C53.236 38.3223 53.3359 38.4137 53.442 38.5197C54.4043 39.4829 55.2171 40.5452 55.9039 41.6684C56.8732 41.4849 57.7286 41.2754 58.4467 41.0746C58.3573 40.9921 58.2677 40.9087 58.1764 40.8287Z" fill="#27319B"/>
<path d="M52.2131 39.7499C51.8211 39.3579 51.4551 39.017 51.0986 38.7163V42.1902C52.1392 42.1589 53.1268 42.0781 54.0439 41.9607C53.5119 41.179 52.9016 40.4384 52.2131 39.7499Z" fill="#27319B"/>
<path d="M49.3583 38.7153C49.0018 39.017 48.635 39.3569 48.2438 39.7489C47.5553 40.4374 46.945 41.1781 46.4139 41.9596C47.3319 42.077 48.3185 42.1578 49.3591 42.1891L49.3583 38.7153Z" fill="#27319B"/>
<path d="M55.904 58.3953C55.2163 59.5184 54.4044 60.5807 53.4412 61.5439C53.3342 61.6509 53.2351 61.7413 53.1317 61.8412C53.316 61.796 53.5029 61.7569 53.6846 61.703C53.8419 61.6569 53.9993 61.6065 54.1549 61.5535C55.6293 61.0502 56.9976 60.2555 58.1756 59.235C58.2677 59.155 58.3564 59.0716 58.4469 58.989C57.7288 58.7882 56.8733 58.5787 55.904 58.3953Z" fill="#27319B"/>
<path d="M45.4644 43.5862C44.582 45.3248 44.0656 47.2113 43.9456 49.163H49.3581V43.9236C47.962 43.8834 46.6467 43.7643 45.4644 43.5862Z" fill="#27319B"/>
<path d="M47.0155 61.5439C46.0523 60.5807 45.2404 59.5184 44.5527 58.3953C43.5834 58.5787 42.728 58.7882 42.0099 58.989C43.3652 60.233 45.0056 61.1823 46.7721 61.703C46.9538 61.7569 47.1407 61.796 47.325 61.8412C47.2216 61.7413 47.1216 61.65 47.0155 61.5439Z" fill="#27319B"/>
<path d="M46.7706 38.3614C45.8769 38.6239 45.0154 38.9942 44.2069 39.4567C43.4149 39.9105 42.6769 40.4521 42.0179 41.0841C42.4118 41.171 42.8004 41.2866 43.1933 41.3796C43.3263 41.4109 44.5138 41.736 44.5512 41.6683C45.2388 40.5459 46.0508 39.4836 47.014 38.5204C47.121 38.4144 47.2201 38.3231 47.3235 38.2231C47.1392 38.2683 46.9523 38.3074 46.7706 38.3614Z" fill="#27319B"/>
<path d="M59.7754 42.4934C58.9922 42.7386 57.9734 43.015 56.765 43.2654C57.6326 45.1162 58.1368 47.1078 58.2489 49.1629H62.3573C62.1852 46.7131 61.2924 44.4085 59.7754 42.4934Z" fill="#27319B"/>
<path d="M42.2074 50.9016H38.0998C38.272 53.3514 39.1648 55.656 40.6817 57.5711C41.4641 57.3259 42.483 57.0495 43.6913 56.7991C42.8246 54.9483 42.3196 52.9567 42.2074 50.9016Z" fill="#27319B"/>
<path d="M40.6817 42.4934C39.1639 44.4077 38.2719 46.7131 38.0998 49.1629H42.2074C42.3196 47.1078 42.8246 45.1161 43.6923 43.2654C42.4839 43.015 41.4641 42.7386 40.6817 42.4934Z" fill="#27319B"/>
<path d="M54.9904 43.5862C53.8081 43.7635 52.4928 43.8834 51.0966 43.9235V49.1629H56.5091C56.3892 47.2121 55.8728 45.3248 54.9904 43.5862Z" fill="#27319B"/>
<path d="M58.2471 50.9016C58.1358 52.9567 57.6316 54.9484 56.764 56.7991C57.9724 57.0487 58.9912 57.3259 59.7737 57.5711C61.2915 55.6568 62.1835 53.3514 62.3555 50.9016H58.2471Z" fill="#27319B"/>
<path d="M43.9456 50.9016C44.0656 52.8524 44.582 54.7397 45.4644 56.4784C46.6467 56.3011 47.962 56.1811 49.3581 56.1411V50.9017H43.9456V50.9016Z" fill="#27319B"/>
<path d="M46.4129 58.1039C46.9449 58.8854 47.5551 59.6261 48.2428 60.3146C48.6357 60.7066 49.0018 61.0474 49.3581 61.3481V57.8743C48.3175 57.9058 47.33 57.9866 46.4129 58.1039Z" fill="#27319B"/>
<path d="M51.0966 50.9015V56.1409C52.4928 56.1809 53.8081 56.2999 54.9904 56.4782C55.8727 54.7395 56.3892 52.8521 56.5091 50.9014H51.0966V50.9015Z" fill="#27319B"/>
<path d="M51.0966 57.8743V61.3499C51.4513 61.0482 51.8182 60.7074 52.2112 60.3145C52.8997 59.626 53.5099 58.8853 54.042 58.1038C53.124 57.9865 52.1372 57.9056 51.0966 57.8743Z" fill="#27319B"/>

</svg>
