<?xml version="1.0" encoding="utf-8"?>
<!-- Generator: Adobe Illustrator 23.1.1, SVG Export Plug-In . SVG Version: 6.00 Build 0)  -->
<svg version="1.1" id="Layer_1" xmlns="http://www.w3.org/2000/svg" xmlns:xlink="http://www.w3.org/1999/xlink" x="0px" y="0px"
	 viewBox="0 0 29 24" style="enable-background:new 0 0 29 24;" xml:space="preserve">
<style type="text/css">
	.st0{fill:#A6B2C7;}
</style>
<path class="st0" d="M25.2,2.1H3.9c-1.5,0-2.7,1.2-2.7,2.7v16.4c0,1.6,1.1,2.7,2.7,2.7h21.3c1.5,0,2.7-1.2,2.7-2.7V4.9
	C27.8,3.3,26.7,2.1,25.2,2.1z M26.2,7.8l-10.7,6.9c-0.3,0.2-0.7,0.3-1,0.3c-0.4,0-0.7-0.1-1-0.3L2.8,7.8C2,7.2,1.7,6,2.2,5.1
	C2.8,4.2,4,3.9,4.9,4.5l9.6,6.2l9.6-6.2c0.9-0.6,2.1-0.3,2.6,0.6C27.3,6,27.1,7.2,26.2,7.8z"/>
</svg>
