<?xml version="1.0" encoding="UTF-8"?>
<svg class="dropdown__icon" xmlns="http://www.w3.org/2000/svg" width="21" height="23" viewBox="0 0 21 23">
    <title>github</title><path fill="#a6b2c7" d="M7.4 22.7C7.4 22.3 7.4 21.1 7.4 19.9 3.6 20.6 2.6 18.9 2.3 18.1 2.1 17.6 1.4 16.3 0.7 15.9 0.2 15.6-0.6 14.9 0.7 14.9 1.9 14.9 2.8 16 3 16.5 4.4 18.8 6.6 18.1 7.5 17.7 7.6 16.7 8 16.1 8.5 15.7 5.1 15.3 1.5 14 1.5 8.2 1.5 6.5 2.1 5.1 3.1 4.1 2.9 3.7 2.4 2.1 3.2 0 3.2 0 4.5-0.4 7.4 1.6 8.7 1.3 10 1.1 11.3 1.1 12.6 1.1 13.9 1.3 15.1 1.6 18-0.4 19.3 0 19.3 0 20.1 2.1 19.6 3.7 19.4 4.1 20.4 5.1 21 6.5 21 8.2 21 14 17.4 15.3 14 15.7 14.6 16.2 15.1 17.1 15.1 18.5 15.1 20.5 15 22.2 15 22.7 15 23.1 7.4 23.1 7.4 22.7Z"/>
</svg>