<?xml version="1.0" encoding="utf-8"?>
<!-- Generator: Adobe Illustrator 23.1.1, SVG Export Plug-In . SVG Version: 6.00 Build 0)  -->
<svg version="1.1" id="Layer_1" xmlns="http://www.w3.org/2000/svg" xmlns:xlink="http://www.w3.org/1999/xlink" x="0px" y="0px"
	 viewBox="0 0 793.7 346.7" style="enable-background:new 0 0 793.7 346.7;" xml:space="preserve">
	<style type="text/css">
		.st0{fill:#E8F0FC;}
	</style>
	<path class="st0" d="M466.2,247.1c-3.5,3.2-6.9,6.4-10.3,9.6c-12.4,11.8-23,18.9-37.1,29.2c-11.2,8.2-23.8,15.1-36.9,21.1
		c-57.4,26.2-142.2,17.6-207.7,19.4C7.8,330.8,20,347.5,20,347.5l773.7-0.7c0-10.1,0-108.4,0-225.2c0,3-23.1,12.8-26,14.3
		c-15.7,8.2-31.4,16.1-48.5,22.3c-19.3,7-39.7,12.2-60.5,15.4c-20.7,3.2-42,2.5-62.1,6.7c-36.1,7.5-69.7,22.2-98,41.8
		C487.1,230.1,476.4,238,466.2,247.1z"/>
</svg>
