<svg xmlns="http://www.w3.org/2000/svg" data-name="Layer 1" viewBox="0 0 2150.1 1550.2">
  <defs>
    <style>
      .cls-1{fill:#f1f6ff;}
    </style>
  </defs>
  <title>
    hero-blob
  </title>
  <path class="cls-1" d="M1685.4 1542.7a286.9 286.9 0 0 0 97.4-40c48.1-31.3 91.7-66.6 130.3-109.3 179.9-199.2 251.4-511.1 234.7-773.7-8.3-131-47.8-262.7-129.5-365.5C1735.5-102 1138.8-26.4 771.8 133.9 579.5 217.8 404.6 340.2 258.3 490.5 142.4 609.6 30.8 749.7 6.1 919.2c-24.3 167 24.3 344 132.4 473.9 38.9 46.7 87.6 89 146.8 102.7 55.2 12.8 113-0.5 167.2-17.2 110-33.9 216.3-81.9 330-103.1 110.4-20.6 231.1-8.5 338.6 22.7 107.8 31.3 207.6 85.8 314.2 120.8C1515.6 1545.3 1603.8 1560.1 1685.4 1542.7Z"/>
</svg>