<?xml version="1.0" encoding="utf-8"?>
<!-- Generator: Adobe Illustrator 23.1.1, SVG Export Plug-In . SVG Version: 6.00 Build 0)  -->
<svg version="1.1" id="Layer_1" xmlns="http://www.w3.org/2000/svg" xmlns:xlink="http://www.w3.org/1999/xlink" x="0px" y="0px"
	 viewBox="0 0 604.5 139.5" style="enable-background:new 0 0 604.5 139.5;" xml:space="preserve">
<style type="text/css">
	.st0{fill:none;stroke:#BBDDFF;stroke-width:2;stroke-miterlimit:10;}
	.st1{fill:#2C3ACF;}
	.st2{fill:#FFFFFF;}
</style>
<g id="fore_1_">
	<path class="st0" d="M7.1,110.9c41.3-22.1,112.5-23.4,121.1-22.1c28.7,4.3,56.1,15,85.2,18.9c28.1,3.7,41.5,7.6,97.9-3.5
		c54-10.7,57-19.6,85-32.4c70.5-32.2,147.1-49.1,208-62.8"/>
	<g>
		<circle class="st1" cx="24.2" cy="110.4" r="24.2"/>
	</g>
	<g>
		<g>
			<g>
				<path class="st2" d="M7.1,113.1C7,113.1,7,113,6.9,113c-0.2-0.2-0.2-0.5,0-0.7L18.7,100c0.2-0.2,0.5-0.2,0.7,0s0.2,0.5,0,0.7
					L7.6,113.1C7.5,113.1,7.3,113.1,7.1,113.1z"/>
			</g>
			<g>
				<path class="st2" d="M22.2,117.5c-0.2-0.1-0.3-0.2-0.4-0.4l-3.3-16.8c0-0.3,0.1-0.5,0.4-0.6s0.5,0.1,0.6,0.4l3.3,16.8
					c0,0.3-0.1,0.5-0.4,0.6C22.3,117.5,22.3,117.5,22.2,117.5z"/>
			</g>
			<g>
				<path class="st2" d="M22.2,117.5c-0.1,0-0.1-0.1-0.2-0.1c-0.2-0.2-0.2-0.5,0-0.7l11.8-12.3c0.2-0.2,0.5-0.2,0.7,0s0.2,0.5,0,0.7
					l-11.8,12.4C22.6,117.5,22.4,117.6,22.2,117.5z"/>
			</g>
			<g>
				<path class="st2" d="M37.3,122c-0.2-0.1-0.3-0.2-0.4-0.4l-3.3-16.8c0-0.3,0.1-0.5,0.4-0.6s0.5,0.1,0.6,0.4l3.3,16.8
					c0,0.3-0.1,0.5-0.4,0.6C37.4,122,37.4,122,37.3,122z"/>
			</g>
		</g>
		<g>
			<circle class="st2" cx="37.5" cy="121.5" r="2"/>
		</g>
		<g>
			<circle class="st2" cx="22.3" cy="117.1" r="2"/>
		</g>
		<g>
			<circle class="st2" cx="7.1" cy="112.9" r="2"/>
		</g>
	</g>
	<g>
		<g>
			<circle class="st1" cx="139.1" cy="86.7" r="24.2"/>
		</g>
		<g>
			<g>
				<g>
					<path class="st2" d="M126.2,98.3c-0.1,0-0.1,0-0.2,0c-0.3-0.1-0.5-0.3-0.4-0.6l3.2-16.8c0-0.3,0.3-0.4,0.6-0.4
						c0.3,0.1,0.5,0.3,0.4,0.6l-3.2,16.8C126.5,98.1,126.4,98.3,126.2,98.3z"/>
				</g>
				<g>
					<path class="st2" d="M141.3,93.8c-0.2,0.1-0.4,0-0.5-0.1l-11.9-12.3c-0.2-0.2-0.2-0.5,0-0.7s0.5-0.2,0.7,0L141.5,93
						c0.2,0.2,0.2,0.5,0,0.7C141.4,93.7,141.4,93.8,141.3,93.8z"/>
				</g>
				<g>
					<path class="st2" d="M141.3,93.8c-0.1,0-0.1,0-0.2,0c-0.3-0.1-0.5-0.3-0.4-0.6l3.2-16.8c0-0.3,0.3-0.4,0.6-0.4
						c0.3,0.1,0.5,0.3,0.4,0.6l-3.2,16.8C141.6,93.6,141.5,93.7,141.3,93.8z"/>
				</g>
				<g>
					<path class="st2" d="M156.4,89.2c-0.2,0.1-0.4,0-0.5-0.1L144,76.8c-0.2-0.2-0.2-0.5,0-0.7s0.5-0.2,0.7,0l11.9,12.3
						c0.2,0.2,0.2,0.5,0,0.7C156.5,89.2,156.4,89.2,156.4,89.2z"/>
				</g>
			</g>
			<g>
				<circle class="st2" cx="156.3" cy="88.8" r="2"/>
			</g>
			<g>
				<circle class="st2" cx="141.1" cy="93.4" r="2"/>
			</g>
			<g>
				<circle class="st2" cx="126.1" cy="98.2" r="2"/>
			</g>
		</g>
	</g>
	<g>
		<g>
			<circle class="st1" cx="246.7" cy="115.3" r="24.2"/>
		</g>
		<g>
			<g>
				<g>
					<path class="st2" d="M230.2,120.5c-0.1,0-0.2,0-0.2-0.1c-0.2-0.2-0.3-0.5-0.1-0.7l9.9-14c0.2-0.2,0.5-0.3,0.7-0.1
						c0.2,0.2,0.3,0.5,0.1,0.7l-9.9,14C230.5,120.5,230.3,120.5,230.2,120.5z"/>
				</g>
				<g>
					<path class="st2" d="M245.8,122.7c-0.2,0-0.3-0.1-0.4-0.3l-5.7-16.1c-0.1-0.3,0-0.5,0.3-0.6s0.5,0,0.6,0.3l5.7,16
						c0.1,0.3,0,0.5-0.3,0.6C245.9,122.7,245.8,122.7,245.8,122.7z"/>
				</g>
				<g>
					<path class="st2" d="M245.8,122.7c-0.1,0-0.2,0-0.2-0.1c-0.2-0.2-0.3-0.5-0.1-0.7l9.9-14c0.2-0.2,0.5-0.3,0.7-0.1
						c0.2,0.2,0.3,0.5,0.1,0.7l-9.9,14C246.1,122.6,245.9,122.7,245.8,122.7z"/>
				</g>
				<g>
					<path class="st2" d="M261.3,124.8c-0.2,0-0.3-0.1-0.4-0.3l-5.7-16.1c-0.1-0.3,0-0.5,0.3-0.6s0.5,0,0.6,0.3l5.7,16.1
						c0.1,0.3,0,0.5-0.3,0.6C261.5,124.8,261.4,124.8,261.3,124.8z"/>
				</g>
			</g>
			<g>
				<circle class="st2" cx="261.4" cy="124.4" r="2"/>
			</g>
			<g>
				<circle class="st2" cx="245.8" cy="122.2" r="2"/>
			</g>
			<g>
				<circle class="st2" cx="230.1" cy="120.4" r="2"/>
			</g>
		</g>
	</g>
	<g>
		<g>
			<circle class="st1" cx="362.6" cy="83.4" r="24.2"/>
		</g>
		<g>
			<g>
				<g>
					<path class="st2" d="M348.4,93.3c-0.1,0-0.2,0-0.2,0c-0.3-0.1-0.4-0.4-0.3-0.6l5.2-16.3c0.1-0.3,0.4-0.4,0.6-0.3
						s0.4,0.4,0.3,0.6L348.8,93C348.7,93.2,348.6,93.3,348.4,93.3z"/>
				</g>
				<g>
					<path class="st2" d="M363.9,90.7c-0.2,0-0.4,0-0.5-0.2l-10.3-13.6c-0.2-0.2-0.1-0.5,0.1-0.7s0.5-0.1,0.7,0.1l10.3,13.6
						c0.2,0.2,0.1,0.5-0.1,0.7C364.1,90.6,364,90.6,363.9,90.7z"/>
				</g>
				<g>
					<path class="st2" d="M363.9,90.7c-0.1,0-0.2,0-0.2,0c-0.3-0.1-0.4-0.4-0.3-0.6l5.2-16.3c0.1-0.3,0.4-0.4,0.6-0.3
						s0.4,0.4,0.3,0.6l-5.2,16.2C364.2,90.5,364.1,90.6,363.9,90.7z"/>
				</g>
				<g>
					<path class="st2" d="M379.4,88c-0.2,0-0.4,0-0.5-0.2l-10.3-13.6c-0.2-0.2-0.1-0.5,0.1-0.7s0.5-0.1,0.7,0.1l10.3,13.6
						c0.2,0.2,0.1,0.5-0.1,0.7C379.6,88,379.5,88,379.4,88z"/>
				</g>
			</g>
			<g>
				<circle class="st2" cx="379.4" cy="87.5" r="2"/>
			</g>
			<g>
				<circle class="st2" cx="363.8" cy="90.2" r="2"/>
			</g>
			<g>
				<circle class="st2" cx="348.3" cy="93.2" r="2"/>
			</g>
		</g>
	</g>
	<g>
		<g>
			<circle class="st1" cx="454.9" cy="47.6" r="24.2"/>
		</g>
		<g>
			<g>
				<g>
					<path class="st2" d="M437.7,50.2c-0.1,0-0.1-0.1-0.2-0.1c-0.2-0.2-0.2-0.5,0-0.7l11.9-12.3c0.2-0.2,0.5-0.2,0.7,0
						s0.2,0.5,0,0.7L438.2,50C438.1,50.2,437.9,50.2,437.7,50.2z"/>
				</g>
				<g>
					<path class="st2" d="M452.8,54.7c-0.2,0-0.3-0.2-0.3-0.4l-3.2-16.8c0-0.3,0.1-0.5,0.4-0.6c0.3,0,0.5,0.1,0.6,0.4l3.2,16.8
						c0,0.3-0.1,0.5-0.4,0.6C452.9,54.7,452.8,54.7,452.8,54.7z"/>
				</g>
				<g>
					<path class="st2" d="M452.8,54.7c-0.1,0-0.1-0.1-0.2-0.1c-0.2-0.2-0.2-0.5,0-0.7l11.9-12.3c0.2-0.2,0.5-0.2,0.7,0
						s0.2,0.5,0,0.7l-11.9,12.2C453.1,54.7,452.9,54.7,452.8,54.7z"/>
				</g>
				<g>
					<path class="st2" d="M467.9,59.2c-0.2,0-0.3-0.2-0.3-0.4L464.3,42c0-0.3,0.1-0.5,0.4-0.6c0.3,0,0.5,0.1,0.6,0.4l3.2,16.8
						c0,0.3-0.1,0.5-0.4,0.6C468,59.2,467.9,59.2,467.9,59.2z"/>
				</g>
			</g>
			<g>
				<circle class="st2" cx="468" cy="58.8" r="2"/>
			</g>
			<g>
				<circle class="st2" cx="452.9" cy="54.2" r="2"/>
			</g>
			<g>
				<circle class="st2" cx="437.7" cy="50" r="2"/>
			</g>
		</g>
	</g>
	<g>
		<g>
			<circle class="st1" cx="554.4" cy="24.2" r="24.2"/>
		</g>
		<g>
			<g>
				<g>
					<path class="st2" d="M538.5,31.1c-0.1,0-0.2,0-0.2-0.1c-0.2-0.1-0.3-0.4-0.2-0.7l8.3-14.9c0.1-0.2,0.4-0.3,0.7-0.2
						c0.3,0.1,0.3,0.4,0.2,0.7l-8.3,15C538.8,31,538.7,31.1,538.5,31.1z"/>
				</g>
				<g>
					<path class="st2" d="M554.2,31.6c-0.2,0-0.3-0.1-0.4-0.3l-7.4-15.4c-0.1-0.2,0-0.5,0.2-0.7c0.2-0.1,0.5,0,0.7,0.2l7.4,15.4
						c0.1,0.2,0,0.5-0.2,0.7C554.4,31.6,554.3,31.6,554.2,31.6z"/>
				</g>
				<g>
					<path class="st2" d="M554.2,31.6c-0.1,0-0.2,0-0.2-0.1c-0.2-0.1-0.3-0.4-0.2-0.7l8.3-14.9c0.1-0.2,0.4-0.3,0.7-0.2
						c0.3,0.1,0.3,0.4,0.2,0.7l-8.3,14.9C554.6,31.5,554.4,31.6,554.2,31.6z"/>
				</g>
				<g>
					<path class="st2" d="M570,32c-0.2,0-0.3-0.1-0.4-0.3l-7.4-15.4c-0.1-0.2,0-0.5,0.2-0.7c0.2-0.1,0.5,0,0.7,0.2l7.4,15.4
						c0.1,0.2,0,0.5-0.2,0.7C570.1,32,570,32,570,32z"/>
				</g>
			</g>
			<g>
				<circle class="st2" cx="570" cy="31.6" r="2"/>
			</g>
			<g>
				<circle class="st2" cx="554.2" cy="31.1" r="2"/>
			</g>
			<g>
				<circle class="st2" cx="538.5" cy="31" r="2"/>
			</g>
		</g>
	</g>
	<g id="Layer_3">
	</g>
</g>
</svg>
